<svg version="1.1" xmlns="http://www.w3.org/2000/svg" x="0" y="0" width="121.279" height="30" viewBox="0 0 121.279 30" xml:space="preserve"><path fill="#536A7F" d="M29.778 30h21.98v-6.747H37.51V18.17h13.935v-6.746H37.51V6.747h14.248V0h-21.98v30zm26.407 0h21.98v-6.747h-14.25V18.17H77.85v-6.746H63.916V6.747h14.25V0h-21.98v30zM25.44 9.985C25.44 4.407 21.667 0 15.014 0H0v6.747h13.846c2.02 0 3.73 1.17 3.73 3.193 0 2.114-1.71 3.238-3.73 3.238H0V30h7.73V19.926h3.957L16.72 30h8.855l-6.113-11.02c2.788-.99 5.98-3.778 5.98-8.995zm77.243 6.522L90.547 0H82.59v30h7.732V12.64L102.998 30h7.462V0h-7.775l-.002 16.507zm11.874 6.77V30h6.722v-6.723h-6.723z"/></svg>